<svg width="28" height="28" viewBox="0 0 28 28" fill="none" xmlns="http://www.w3.org/2000/svg">
<path d="M22.166 12.8327H15.166V5.83268C15.166 5.52326 15.0431 5.22652 14.8243 5.00772C14.6055 4.78893 14.3088 4.66602 13.9993 4.66602C13.6899 4.66602 13.3932 4.78893 13.1744 5.00772C12.9556 5.22652 12.8327 5.52326 12.8327 5.83268V12.8327H5.83268C5.52326 12.8327 5.22652 12.9556 5.00772 13.1744C4.78893 13.3932 4.66602 13.6899 4.66602 13.9993C4.66602 14.3088 4.78893 14.6055 5.00772 14.8243C5.22652 15.0431 5.52326 15.166 5.83268 15.166H12.8327V22.166C12.8327 22.4754 12.9556 22.7722 13.1744 22.991C13.3932 23.2098 13.6899 23.3327 13.9993 23.3327C14.3088 23.3327 14.6055 23.2098 14.8243 22.991C15.0431 22.7722 15.166 22.4754 15.166 22.166V15.166H22.166C22.4754 15.166 22.7722 15.0431 22.991 14.8243C23.2098 14.6055 23.3327 14.3088 23.3327 13.9993C23.3327 13.6899 23.2098 13.3932 22.991 13.1744C22.7722 12.9556 22.4754 12.8327 22.166 12.8327Z" fill="#FAFAFA"/>
</svg>
