<svg width="28" height="28" viewBox="0 0 28 28" fill="none" xmlns="http://www.w3.org/2000/svg">
<path d="M23.334 14.3201C23.334 14.763 23.0048 15.1291 22.5777 15.1871L22.459 15.1951L4.95898 15.1951C4.47573 15.1951 4.08398 14.8033 4.08398 14.3201C4.08398 13.8771 4.41316 13.511 4.84025 13.4531L4.95898 13.4451L22.459 13.4451C22.9422 13.4451 23.334 13.8368 23.334 14.3201Z" fill="white"/>
<path d="M12.635 20.7284C12.9774 21.0694 12.9786 21.6234 12.6376 21.9659C12.3277 22.2772 11.8416 22.3065 11.4985 22.053L11.4002 21.9685L4.34186 14.9405C4.02962 14.6296 4.00121 14.1418 4.25666 13.7988L4.34181 13.7005L11.4001 6.67132C11.7426 6.33032 12.2966 6.33147 12.6376 6.67388C12.9476 6.98517 12.9748 7.47134 12.7199 7.81336L12.635 7.91132L6.19964 14.3208L12.635 20.7284Z" fill="white"/>
</svg>
