<svg width="20" height="17" viewBox="0 0 20 17" fill="none" xmlns="http://www.w3.org/2000/svg">
<g id="Group">
<path id="Vector" d="M19.334 8.32031C19.334 8.76329 19.0048 9.12939 18.5777 9.18733L18.459 9.19531L0.958982 9.19531C0.475735 9.19531 0.0839825 8.80356 0.0839825 8.32031C0.0839825 7.87733 0.413162 7.51124 0.840252 7.4533L0.958982 7.44531L18.459 7.44531C18.9422 7.44531 19.334 7.83706 19.334 8.32031Z" fill="white"/>
<path id="Vector_2" d="M8.63496 14.7281C8.97741 15.0691 8.9786 15.6231 8.63763 15.9656C8.32765 16.2769 7.84161 16.3062 7.49851 16.0527L7.40019 15.9682L0.34186 8.94023C0.0296164 8.62933 0.00121212 8.14153 0.256659 7.79845L0.341808 7.70018L7.40014 0.671018C7.74256 0.330017 8.29658 0.331164 8.63758 0.67358C8.94758 0.984866 8.97481 1.47103 8.71994 1.81305L8.63501 1.91101L2.19964 8.32053L8.63496 14.7281Z" fill="white"/>
</g>
</svg>
