<svg width="24" height="25" viewBox="0 0 24 25" fill="none" xmlns="http://www.w3.org/2000/svg">
<path d="M13.4099 12.4999L17.7099 8.20994C17.8982 8.02164 18.004 7.76624 18.004 7.49994C18.004 7.23364 17.8982 6.97825 17.7099 6.78994C17.5216 6.60164 17.2662 6.49585 16.9999 6.49585C16.7336 6.49585 16.4782 6.60164 16.2899 6.78994L11.9999 11.0899L7.70994 6.78994C7.52164 6.60164 7.26624 6.49585 6.99994 6.49585C6.73364 6.49585 6.47824 6.60164 6.28994 6.78994C6.10164 6.97825 5.99585 7.23364 5.99585 7.49994C5.99585 7.76624 6.10164 8.02164 6.28994 8.20994L10.5899 12.4999L6.28994 16.7899C6.19621 16.8829 6.12182 16.9935 6.07105 17.1154C6.02028 17.2372 5.99414 17.3679 5.99414 17.4999C5.99414 17.632 6.02028 17.7627 6.07105 17.8845C6.12182 18.0064 6.19621 18.117 6.28994 18.2099C6.3829 18.3037 6.4935 18.3781 6.61536 18.4288C6.73722 18.4796 6.86793 18.5057 6.99994 18.5057C7.13195 18.5057 7.26266 18.4796 7.38452 18.4288C7.50638 18.3781 7.61698 18.3037 7.70994 18.2099L11.9999 13.9099L16.2899 18.2099C16.3829 18.3037 16.4935 18.3781 16.6154 18.4288C16.7372 18.4796 16.8679 18.5057 16.9999 18.5057C17.132 18.5057 17.2627 18.4796 17.3845 18.4288C17.5064 18.3781 17.617 18.3037 17.7099 18.2099C17.8037 18.117 17.8781 18.0064 17.9288 17.8845C17.9796 17.7627 18.0057 17.632 18.0057 17.4999C18.0057 17.3679 17.9796 17.2372 17.9288 17.1154C17.8781 16.9935 17.8037 16.8829 17.7099 16.7899L13.4099 12.4999Z" fill="white"/>
</svg>
