<svg width="24" height="25" viewBox="0 0 24 25" fill="none" xmlns="http://www.w3.org/2000/svg">
<path d="M18.7104 7.70998C18.6175 7.61625 18.5069 7.54186 18.385 7.49109C18.2632 7.44032 18.1324 7.41418 18.0004 7.41418C17.8684 7.41418 17.7377 7.44032 17.6159 7.49109C17.494 7.54186 17.3834 7.61625 17.2904 7.70998L9.84044 15.17L6.71044 12.03C6.61392 11.9367 6.49998 11.8634 6.37512 11.8142C6.25026 11.765 6.11694 11.7409 5.98276 11.7432C5.84858 11.7455 5.71617 11.7743 5.59309 11.8278C5.47001 11.8812 5.35868 11.9585 5.26544 12.055C5.1722 12.1515 5.09889 12.2654 5.04968 12.3903C5.00048 12.5152 4.97635 12.6485 4.97867 12.7827C4.98099 12.9168 5.00972 13.0493 5.06321 13.1723C5.1167 13.2954 5.19392 13.4067 5.29044 13.5L9.13044 17.34C9.2234 17.4337 9.334 17.5081 9.45586 17.5589C9.57772 17.6096 9.70843 17.6358 9.84044 17.6358C9.97245 17.6358 10.1032 17.6096 10.225 17.5589C10.3469 17.5081 10.4575 17.4337 10.5504 17.34L18.7104 9.17998C18.8119 9.08634 18.893 8.97269 18.9484 8.84619C19.0038 8.71969 19.0324 8.58308 19.0324 8.44498C19.0324 8.30688 19.0038 8.17028 18.9484 8.04378C18.893 7.91728 18.8119 7.80363 18.7104 7.70998Z" fill="#212121"/>
</svg>
