<svg width="25" height="24" viewBox="0 0 25 24" fill="none" xmlns="http://www.w3.org/2000/svg">
<path fill-rule="evenodd" clip-rule="evenodd" d="M7.59153 16.0031C7.43153 16.0031 7.27053 15.9521 7.13453 15.8481C6.80653 15.5951 6.74453 15.1241 6.99753 14.7961L9.99053 10.9061C10.1125 10.7471 10.2935 10.6441 10.4915 10.6191C10.6935 10.5931 10.8915 10.6491 11.0485 10.7741L13.8685 12.9891L16.3355 9.80611C16.5895 9.47711 17.0595 9.41611 17.3875 9.67211C17.7155 9.92611 17.7755 10.3971 17.5215 10.7241L14.5915 14.5041C14.4695 14.6621 14.2895 14.7651 14.0915 14.7891C13.8915 14.8161 13.6935 14.7581 13.5355 14.6351L10.7175 12.4211L8.18653 15.7101C8.03853 15.9021 7.81653 16.0031 7.59153 16.0031Z" fill="#9E9E9E"/>
<mask id="mask0_189_3259" style="mask-type:luminance" maskUnits="userSpaceOnUse" x="17" y="2" width="7" height="6">
<path fill-rule="evenodd" clip-rule="evenodd" d="M17.6699 2H23.0139V7.3449H17.6699V2Z" fill="white"/>
</mask>
<g mask="url(#mask0_189_3259)">
<path fill-rule="evenodd" clip-rule="evenodd" d="M20.3419 3.5C19.6959 3.5 19.1699 4.025 19.1699 4.672C19.1699 5.318 19.6959 5.845 20.3419 5.845C20.9879 5.845 21.5139 5.318 21.5139 4.672C21.5139 4.025 20.9879 3.5 20.3419 3.5ZM20.3419 7.345C18.8689 7.345 17.6699 6.146 17.6699 4.672C17.6699 3.198 18.8689 2 20.3419 2C21.8159 2 23.0139 3.198 23.0139 4.672C23.0139 6.146 21.8159 7.345 20.3419 7.345Z" fill="#9E9E9E"/>
</g>
<mask id="mask1_189_3259" style="mask-type:luminance" maskUnits="userSpaceOnUse" x="2" y="2" width="21" height="21">
<path fill-rule="evenodd" clip-rule="evenodd" d="M2.375 2.8418H22.2369V22.7028H2.375V2.8418Z" fill="white"/>
</mask>
<g mask="url(#mask1_189_3259)">
<path fill-rule="evenodd" clip-rule="evenodd" d="M16.608 22.7028H8.004C4.637 22.7028 2.375 20.3378 2.375 16.8178V8.7358C2.375 5.2108 4.637 2.8418 8.004 2.8418H15.272C15.686 2.8418 16.022 3.1778 16.022 3.5918C16.022 4.0058 15.686 4.3418 15.272 4.3418H8.004C5.496 4.3418 3.875 6.0658 3.875 8.7358V16.8178C3.875 19.5228 5.457 21.2028 8.004 21.2028H16.608C19.116 21.2028 20.737 19.4818 20.737 16.8178V9.7788C20.737 9.3648 21.073 9.0288 21.487 9.0288C21.901 9.0288 22.237 9.3648 22.237 9.7788V16.8178C22.237 20.3378 19.975 22.7028 16.608 22.7028Z" fill="#9E9E9E"/>
</g>
</svg>
