<svg width="160" height="160" viewBox="0 0 160 160" fill="none" xmlns="http://www.w3.org/2000/svg">
<path d="M42.2563 101.111C29.2215 94.3833 21.4228 77.7778 30.7749 62.5926C36.4645 53.3542 60.0375 44.0021 79.8002 36.1616C92.5217 31.1146 103.664 26.694 107.442 23.3333C117.398 16.0359 121.546 10.9931 125.96 0C133.46 11.1111 134.571 30 132.349 37.4074C130.127 44.8148 126.053 48.5185 107.442 58.8889C97.8636 64.2258 90.9005 66.771 83.5123 69.4716C76.5442 72.0187 69.1978 74.704 58.923 80C47.9047 85.6792 43.4603 89.6296 42.2563 101.111Z" fill="#A0E86F"/>
<path d="M42.2563 160C29.2215 153.272 21.4228 136.667 30.7749 121.481C36.4645 112.243 60.0375 102.891 79.8002 95.0505C92.5217 90.0035 103.664 85.5829 107.442 82.2222C117.398 74.9248 121.546 69.882 125.96 58.8889C133.46 70 134.571 88.8889 132.349 96.2963C130.127 103.704 126.053 107.407 107.442 117.778C97.8636 123.115 90.9005 125.66 83.5123 128.361C76.5442 130.908 69.1978 133.593 58.923 138.889C47.9047 144.568 43.4603 148.519 42.2563 160Z" fill="#A0E86F"/>
</svg>
