<svg width="28" height="28" viewBox="0 0 28 28" fill="none" xmlns="http://www.w3.org/2000/svg">
<path d="M7.39432 17.6944C5.11323 16.5171 3.74845 13.6111 5.38507 10.9537C6.38075 9.33699 10.506 7.70036 13.9645 6.32828C16.1908 5.44506 18.1407 4.67145 18.8017 4.08333C20.5441 2.80628 21.27 1.9238 22.0425 0C23.355 1.94444 23.5495 5.25 23.1606 6.5463C22.7717 7.84259 22.0587 8.49074 18.8017 10.3056C17.1256 11.2395 15.9071 11.6849 14.6141 12.1575C13.3947 12.6033 12.1091 13.0732 10.311 14C8.38279 14.9939 7.60502 15.6852 7.39432 17.6944Z" fill="#212121"/>
<path d="M7.39432 28C5.11323 26.8226 3.74845 23.9167 5.38507 21.2593C6.38075 19.6425 10.506 18.0059 13.9645 16.6338C16.1908 15.7506 18.1407 14.977 18.8017 14.3889C20.5441 13.1118 21.27 12.2294 22.0425 10.3056C23.355 12.25 23.5495 15.5556 23.1606 16.8519C22.7717 18.1481 22.0587 18.7963 18.8017 20.6111C17.1256 21.5451 15.9071 21.9905 14.6141 22.4631C13.3947 22.9088 12.1091 23.3788 10.311 24.3056C8.38279 25.2994 7.60502 25.9907 7.39432 28Z" fill="#212121"/>
</svg>
