<svg width="29" height="28" viewBox="0 0 29 28" fill="none" xmlns="http://www.w3.org/2000/svg">
<path d="M19.5031 14.3866C19.5031 14.5546 19.4552 14.7237 19.3537 14.8742C18.3889 16.3081 15.9599 19.6471 14.2507 19.6471C12.5416 19.6471 10.1149 16.3081 9.15123 14.8731C8.88173 14.4717 8.98906 13.9281 9.3904 13.6597C9.79173 13.3902 10.3354 13.4964 10.6049 13.8977C11.5265 15.2688 12.5968 16.5589 13.3757 17.2875L13.3757 9.23984C13.3757 8.75684 13.7677 8.36484 14.2507 8.36484C14.7337 8.36484 15.1257 8.75684 15.1257 9.23984L15.1257 17.2969C15.8981 16.57 16.9753 15.2744 17.9024 13.8966C18.1719 13.4952 18.7156 13.3902 19.1169 13.6597C19.3677 13.8277 19.5031 14.1054 19.5031 14.3866Z" fill="#212121"/>
<path fill-rule="evenodd" clip-rule="evenodd" d="M14.2507 25.6667C22.8642 25.6667 25.9173 22.6135 25.9173 14C25.9173 5.38652 22.8641 2.33335 14.2507 2.33335C5.63715 2.33335 2.58398 5.38652 2.58398 14C2.58398 22.6135 5.63715 25.6667 14.2507 25.6667ZM14.2507 23.9167C6.65098 23.9167 4.33398 21.5997 4.33398 14C4.33398 6.40035 6.65098 4.08335 14.2507 4.08335C21.8503 4.08335 24.1673 6.40035 24.1673 14C24.1673 21.5997 21.8503 23.9167 14.2507 23.9167Z" fill="#212121"/>
</svg>
