<svg width="20" height="20" viewBox="0 0 20 20" fill="none" xmlns="http://www.w3.org/2000/svg">
<path fill-rule="evenodd" clip-rule="evenodd" d="M7.17128 2.875C7.50378 2.875 7.77374 3.13972 7.77374 3.46655C7.77374 3.7926 7.50457 4.05732 7.17128 4.05732L5.88165 4.05809C4.81132 4.05965 3.94049 4.91436 3.94049 5.96471V7.43659C3.94049 7.76264 3.66974 8.02814 3.33724 8.02814C3.00474 8.02814 2.73478 7.76264 2.73478 7.43659V5.96471C2.73478 4.26304 4.14632 2.87733 5.88086 2.87578L7.17049 2.875H7.17128ZM12.8498 2.87523H14.1109C15.8502 2.87523 17.2642 4.26172 17.2642 5.96727V7.43682C17.2642 7.76287 16.995 8.02837 16.6617 8.02837C16.3292 8.02837 16.0592 7.76287 16.0592 7.43682V5.96727C16.0592 4.91382 15.1852 4.05677 14.1109 4.05677H12.8498C12.5173 4.05677 12.2474 3.79283 12.2474 3.46678C12.2474 3.13995 12.5173 2.87523 12.8498 2.87523ZM12.1863 5.83794H7.81316C6.81249 5.84803 6.00816 6.64996 6.01687 7.63199V8.6179C6.01925 8.73279 6.11345 8.82673 6.23062 8.83061H13.7673C13.8852 8.8275 13.9795 8.73357 13.9834 8.6179V7.63199C13.9842 7.15766 13.7974 6.70197 13.4601 6.36272C13.1252 6.02658 12.6653 5.83794 12.1863 5.83794ZM1.89427 10.0326H18.1052C18.4377 10.0326 18.7077 10.2974 18.7077 10.6242C18.7077 10.9502 18.4377 11.2142 18.1052 11.2142H17.2645V14.0322C17.2645 15.7385 15.8498 17.125 14.1113 17.125H12.8501C12.5168 17.125 12.2469 16.8603 12.2469 16.5335C12.2469 16.2074 12.5168 15.9427 12.8501 15.9427H14.1113C15.1856 15.9427 16.0596 15.0864 16.0596 14.0322V11.2142H13.983V11.999C13.9909 12.9811 13.1874 13.7838 12.1859 13.7931H7.81277C6.8121 13.7838 6.00856 12.9811 6.01647 11.999V11.2142H3.93993V14.0353C3.93993 15.0856 4.81156 15.9404 5.88268 15.9419L7.17152 15.9427C7.50402 15.9427 7.77397 16.2074 7.77397 16.5335C7.77318 16.8603 7.50402 17.125 7.17072 17.125L5.8811 17.1242C4.14656 17.1227 2.73422 15.737 2.73422 14.0353V11.2142H1.89427C1.56177 11.2142 1.29102 10.9502 1.29102 10.6242C1.29102 10.2974 1.56177 10.0326 1.89427 10.0326Z" fill="#212121"/>
</svg>
