<svg width="28" height="28" viewBox="0 0 28 28" fill="none" xmlns="http://www.w3.org/2000/svg">
<mask id="mask0_189_10500" style="mask-type:luminance" maskUnits="userSpaceOnUse" x="2" y="2" width="24" height="24">
<path fill-rule="evenodd" clip-rule="evenodd" d="M2.33398 2.33331H25.0569V25.0565H2.33398V2.33331Z" fill="white"/>
</mask>
<g mask="url(#mask0_189_10500)">
<path fill-rule="evenodd" clip-rule="evenodd" d="M13.6962 4.08331C8.39598 4.08331 4.08398 8.39415 4.08398 13.6943C4.08398 18.9945 8.39598 23.3065 13.6962 23.3065C18.9951 23.3065 23.3071 18.9945 23.3071 13.6943C23.3071 8.39415 18.9951 4.08331 13.6962 4.08331ZM13.6962 25.0565C7.43115 25.0565 2.33398 19.9593 2.33398 13.6943C2.33398 7.42931 7.43115 2.33331 13.6962 2.33331C19.9612 2.33331 25.0571 7.42931 25.0571 13.6943C25.0571 19.9593 19.9612 25.0565 13.6962 25.0565Z" fill="white"/>
</g>
<mask id="mask1_189_10500" style="mask-type:luminance" maskUnits="userSpaceOnUse" x="20" y="20" width="6" height="7">
<path fill-rule="evenodd" clip-rule="evenodd" d="M20.1133 20.6581H25.9747V26.5086H20.1133V20.6581Z" fill="white"/>
</mask>
<g mask="url(#mask1_189_10500)">
<path fill-rule="evenodd" clip-rule="evenodd" d="M25.0999 26.5086C24.8771 26.5086 24.6531 26.4235 24.4816 26.2531L20.3702 22.1535C20.0284 21.8116 20.0272 21.2575 20.3691 20.9156C20.7097 20.5715 21.2639 20.5738 21.6069 20.9133L25.7182 25.0141C26.0601 25.356 26.0612 25.909 25.7194 26.2508C25.5491 26.4235 25.3239 26.5086 25.0999 26.5086Z" fill="white"/>
</g>
</svg>
