<svg width="29" height="28" viewBox="0 0 29 28" fill="none" xmlns="http://www.w3.org/2000/svg">
<path fill-rule="evenodd" clip-rule="evenodd" d="M16.1664 5.68986C11.8821 6.86946 7.42262 8.45358 5.47898 9.5755C5.01472 9.8435 4.91221 10.0223 4.8939 10.0617C4.90253 10.0919 4.93636 10.1645 5.0543 10.2896C5.27048 10.5188 5.65135 10.7878 6.20011 11.0767C6.73714 11.3594 7.38327 11.6348 8.08418 11.8954C9.48569 12.4164 11.0469 12.8565 12.2676 13.1679C12.8758 13.323 13.3949 13.4451 13.7614 13.5282C13.9445 13.5697 14.0893 13.6015 14.1878 13.6228L14.2997 13.6467L14.3276 13.6526L14.3358 13.6543C14.6775 13.725 14.9448 13.9921 15.0155 14.3339L15.0173 14.3423L15.0232 14.3702L15.0471 14.4821C15.0684 14.5806 15.1002 14.7254 15.1417 14.9085C15.2248 15.275 15.3469 15.7941 15.502 16.4023C15.8134 17.623 16.2535 19.1842 16.7745 20.5857C17.0351 21.2866 17.3105 21.9328 17.5932 22.4698C17.8821 23.0186 18.1511 23.3994 18.3803 23.6156C18.5054 23.7335 18.578 23.7674 18.6082 23.776C18.6476 23.7577 18.8264 23.6552 19.0944 23.1909C20.2163 21.2473 21.8004 16.7878 22.98 12.5035C23.5658 10.3759 24.041 8.33062 24.3046 6.70749C24.4367 5.89397 24.5121 5.20754 24.5259 4.6798C24.5314 4.46942 24.5268 4.29519 24.5147 4.15523C24.3747 4.1431 24.2005 4.13846 23.9901 4.14397C23.4624 4.15778 22.7759 4.23321 21.9624 4.36532C20.3393 4.6289 18.294 5.10406 16.1664 5.68986ZM18.6249 23.7782C18.625 23.7788 18.6212 23.7791 18.6131 23.7773C18.6207 23.7766 18.6248 23.7775 18.6249 23.7782ZM13.4238 15.2461C13.4076 15.2424 13.3911 15.2387 13.3742 15.2348C12.9955 15.1489 12.461 15.0233 11.8351 14.8636C10.5876 14.5454 8.9591 14.0877 7.47437 13.5357C6.73216 13.2598 6.01104 12.9549 5.38482 12.6252C4.77033 12.3016 4.19195 11.9259 3.781 11.4901C3.37145 11.0557 3.00777 10.422 3.18798 9.66456C3.35518 8.96181 3.9295 8.44931 4.6041 8.05989C6.75797 6.81662 11.4079 5.1849 15.7018 4.00264C17.8633 3.40751 19.9744 2.91523 21.6819 2.63795C22.5337 2.49962 23.3062 2.41127 23.9443 2.39457C24.2634 2.38621 24.5661 2.39523 24.8379 2.43017C25.0991 2.46375 25.3882 2.52794 25.6445 2.66443C25.798 2.7462 25.9237 2.87188 26.0055 3.02541C26.142 3.28169 26.2062 3.57078 26.2397 3.83202C26.2747 4.10378 26.2837 4.40648 26.2753 4.72559C26.2586 5.36372 26.1703 6.1362 26.0319 6.988C25.7547 8.69552 25.2624 10.8066 24.6673 12.9681C23.485 17.262 21.8533 21.9119 20.61 24.0658C20.2206 24.7404 19.7081 25.3147 19.0053 25.4819C18.2479 25.6621 17.6142 25.2985 17.1798 24.8889C16.744 24.4779 16.3683 23.8996 16.0447 23.2851C15.715 22.6589 15.4101 21.9377 15.1342 21.1955C14.5822 19.7108 14.1245 18.0823 13.8063 16.8348C13.6466 16.2089 13.521 15.6744 13.4351 15.2957C13.4312 15.2788 13.4275 15.2623 13.4238 15.2461ZM4.89173 10.045C4.89237 10.0451 4.89331 10.0492 4.89263 10.0568C4.89075 10.0487 4.89109 10.0449 4.89173 10.045Z" fill="#212121"/>
<path fill-rule="evenodd" clip-rule="evenodd" d="M25.8514 2.81799C26.1931 3.1597 26.1931 3.71372 25.8514 4.05542L14.7769 15.1299C14.4352 15.4716 13.8812 15.4716 13.5395 15.1299C13.1978 14.7882 13.1978 14.2342 13.5395 13.8925L24.614 2.81799C24.9557 2.47628 25.5097 2.47628 25.8514 2.81799Z" fill="#212121"/>
</svg>
