<svg width="28" height="28" viewBox="0 0 28 28" fill="none" xmlns="http://www.w3.org/2000/svg">
<mask id="mask0_189_9701" style="mask-type:luminance" maskUnits="userSpaceOnUse" x="2" y="2" width="23" height="25">
<path fill-rule="evenodd" clip-rule="evenodd" d="M2.33398 2.33392H24.833V26.5084H2.33398V2.33392Z" fill="white"/>
</mask>
<g mask="url(#mask0_189_9701)">
<path fill-rule="evenodd" clip-rule="evenodd" d="M8.40336 20.3473C8.67052 20.3473 8.93769 20.3811 9.19902 20.4511C9.98769 20.6634 10.6725 21.1908 11.0785 21.8989C11.3422 22.3434 11.488 22.8626 11.4927 23.3923C11.4927 24.1506 12.1017 24.7584 12.8507 24.7584H14.3125C15.058 24.7584 15.667 24.1541 15.6705 23.4086C15.6659 22.5849 15.9879 21.8021 16.577 21.2129C17.158 20.6319 17.97 20.2831 18.782 20.3064C19.314 20.3193 19.8262 20.4628 20.2777 20.7194C20.9275 21.0916 21.757 20.8699 22.1327 20.2283L22.9074 18.9368C23.08 18.6393 23.1302 18.2659 23.038 17.9218C22.947 17.5776 22.7184 17.2789 22.4104 17.1028C21.6894 16.6874 21.1749 16.0178 20.9614 15.2151C20.7502 14.4276 20.8657 13.5678 21.2775 12.8596C21.5459 12.3929 21.939 11.9998 22.4104 11.7291C23.0427 11.3593 23.2644 10.5321 22.8969 9.88809C22.8817 9.86242 22.8677 9.83559 22.856 9.80759L22.1724 8.62226C21.8002 7.97476 20.9719 7.75192 20.322 8.12176C19.6197 8.53709 18.7844 8.65609 17.9817 8.44492C17.1802 8.23726 16.5082 7.72976 16.0894 7.01342C15.821 6.56542 15.6752 6.04392 15.6705 5.51309C15.681 5.11409 15.541 4.75592 15.2867 4.49342C15.0335 4.23209 14.6777 4.08392 14.3125 4.08392H12.8507C12.489 4.08392 12.1507 4.22509 11.8952 4.47942C11.6409 4.73492 11.502 5.07442 11.5044 5.43609C11.4799 7.14176 10.0857 8.51492 8.39752 8.51492C7.85619 8.50909 7.33469 8.36326 6.88202 8.09259C6.24619 7.73092 5.41552 7.95376 5.04336 8.60126L4.25352 9.89976C3.89186 10.5274 4.11352 11.3569 4.75752 11.7314C5.71302 12.2844 6.30919 13.3158 6.30919 14.4218C6.30919 15.5278 5.71302 16.5579 4.75519 17.1121C4.11469 17.4831 3.89302 18.3079 4.26402 18.9496L5.00019 20.2189C5.18219 20.5468 5.47969 20.7836 5.82386 20.8804C6.16686 20.9761 6.54486 20.9353 6.85986 20.7603C7.32302 20.4884 7.86202 20.3473 8.40336 20.3473ZM14.3125 26.5084H12.8507C11.1369 26.5084 9.74269 25.1154 9.74269 23.4016C9.74036 23.1904 9.67969 22.9711 9.56652 22.7809C9.38336 22.4613 9.08702 22.2326 8.74519 22.1416C8.40569 22.0506 8.03352 22.1008 7.72786 22.2781C6.99519 22.6864 6.13302 22.7856 5.34436 22.5639C4.55686 22.3411 3.87669 21.7998 3.47769 21.0823L2.74852 19.8258C1.89569 18.3464 2.40319 16.4506 3.88019 15.5966C4.29902 15.3551 4.55919 14.9048 4.55919 14.4218C4.55919 13.9388 4.29902 13.4873 3.88019 13.2458C2.40202 12.3871 1.89569 10.4866 2.74736 9.00726L3.53836 7.70876C4.37952 6.24576 6.28119 5.73009 7.76402 6.58176C7.96586 6.70192 8.18519 6.76259 8.40802 6.76492C9.13486 6.76492 9.74269 6.16526 9.75436 5.42792C9.74969 4.61476 10.0705 3.83426 10.655 3.24509C11.2419 2.65709 12.0212 2.33392 12.8507 2.33392H14.3125C15.1479 2.33392 15.9599 2.67692 16.542 3.27309C17.123 3.87276 17.4439 4.69526 17.4194 5.52942C17.4217 5.71726 17.4835 5.93426 17.5955 6.12442C17.781 6.43942 18.0739 6.66109 18.4215 6.75209C18.7692 6.83842 19.1332 6.79176 19.4424 6.60859C20.9357 5.75576 22.8362 6.26676 23.689 7.74842L24.4159 9.00726C24.4345 9.04109 24.4509 9.07376 24.4649 9.10759C25.2372 10.5671 24.7215 12.4046 23.2865 13.2434C23.0777 13.3636 22.9085 13.5316 22.7919 13.7346C22.611 14.0484 22.5609 14.4218 22.6519 14.7648C22.7452 15.1148 22.968 15.4053 23.2819 15.5849C23.99 15.9921 24.5185 16.6781 24.7297 17.4703C24.9409 18.2613 24.8254 19.1199 24.4135 19.8281L23.6389 21.1184C22.786 22.5838 20.8855 23.0913 19.4074 22.2373C19.2102 22.1241 18.9827 22.0623 18.7564 22.0564H18.7494C18.4122 22.0564 18.0657 22.1999 17.8137 22.4508C17.5582 22.7063 17.4182 23.0469 17.4205 23.4086C17.4124 25.1224 16.0182 26.5084 14.3125 26.5084Z" fill="white"/>
</g>
<path fill-rule="evenodd" clip-rule="evenodd" d="M13.5871 12.2204C12.3737 12.2204 11.3867 13.2086 11.3867 14.4219C11.3867 15.6352 12.3737 16.6211 13.5871 16.6211C14.8004 16.6211 15.7874 15.6352 15.7874 14.4219C15.7874 13.2086 14.8004 12.2204 13.5871 12.2204ZM13.5871 18.3711C11.4089 18.3711 9.63672 16.6001 9.63672 14.4219C9.63672 12.2437 11.4089 10.4704 13.5871 10.4704C15.7652 10.4704 17.5374 12.2437 17.5374 14.4219C17.5374 16.6001 15.7652 18.3711 13.5871 18.3711Z" fill="white"/>
</svg>
