<svg width="29" height="28" viewBox="0 0 29 28" fill="none" xmlns="http://www.w3.org/2000/svg">
<path fill-rule="evenodd" clip-rule="evenodd" d="M14.6094 2.33331C15.0926 2.33331 15.4844 2.72506 15.4844 3.20831V17.2561C15.4844 17.7394 15.0926 18.1311 14.6094 18.1311C14.1261 18.1311 13.7344 17.7394 13.7344 17.2561V3.20831C13.7344 2.72506 14.1261 2.33331 14.6094 2.33331Z" fill="#212121"/>
<path fill-rule="evenodd" clip-rule="evenodd" d="M10.5896 13.2216C10.932 12.8806 11.486 12.8817 11.827 13.2241L14.609 16.0176L17.391 13.2241C17.7321 12.8817 18.2861 12.8806 18.6285 13.2216C18.9709 13.5626 18.972 14.1166 18.631 14.459L15.229 17.875C15.0648 18.0399 14.8417 18.1326 14.609 18.1326C14.3763 18.1326 14.1532 18.0399 13.989 17.875L10.587 14.459C10.246 14.1166 10.2472 13.5626 10.5896 13.2216Z" fill="#212121"/>
<path fill-rule="evenodd" clip-rule="evenodd" d="M18.9777 8.3881C19.0221 7.9069 19.4481 7.55277 19.9293 7.59714C22.0845 7.79585 23.8333 8.31703 24.9644 9.84328C26.049 11.3066 26.4173 13.5113 26.4173 16.6351C26.4173 20.7761 25.7677 23.3221 23.6402 24.6286C22.6263 25.2513 21.3706 25.5265 19.9332 25.6603C18.5015 25.7935 16.7815 25.7934 14.7875 25.7934H14.7138C12.7192 25.7934 10.999 25.7935 9.56713 25.6603C8.12965 25.5265 6.874 25.2513 5.86016 24.6286C3.73297 23.322 3.08398 20.7759 3.08398 16.6351C3.08398 13.5114 3.45202 11.3067 4.53638 9.84333C5.6674 8.317 7.41634 7.79584 9.572 7.59714C10.0532 7.55278 10.4793 7.90692 10.5236 8.38813C10.568 8.86933 10.2138 9.29539 9.73263 9.33975C7.71163 9.52604 6.6139 9.97905 5.94242 10.8852C5.22429 11.8544 4.83398 13.5404 4.83398 16.6351C4.83398 20.7776 5.53192 22.3732 6.7761 23.1374C7.44795 23.5501 8.3841 23.7926 9.72923 23.9178C11.0712 24.0426 12.712 24.0434 14.7507 24.0434C16.7888 24.0434 18.4293 24.0426 19.7711 23.9178C21.1161 23.7926 22.0524 23.5501 22.7244 23.1374C23.9689 22.3731 24.6673 20.7774 24.6673 16.6351C24.6673 13.5405 24.2768 11.8544 23.5585 10.8853C22.8868 9.97902 21.789 9.52603 19.7686 9.33975C19.2874 9.29538 18.9333 8.86931 18.9777 8.3881Z" fill="#212121"/>
</svg>
