<svg width="24" height="25" viewBox="0 0 24 25" fill="none" xmlns="http://www.w3.org/2000/svg">
<path d="M1.5 12.5C1.5 9.62917 1.50319 7.62694 1.70629 6.11624C1.9036 4.64869 2.26449 3.87155 2.81802 3.31802C3.37155 2.76449 4.14869 2.4036 5.61624 2.20629C7.12694 2.00319 9.12917 2 12 2C14.8708 2 16.8731 2.00319 18.3838 2.20629C19.8513 2.4036 20.6285 2.76449 21.182 3.31802C21.7355 3.87155 22.0964 4.64869 22.2937 6.11624C22.4968 7.62694 22.5 9.62917 22.5 12.5C22.5 15.3708 22.4968 17.3731 22.2937 18.8838C22.0964 20.3513 21.7355 21.1285 21.182 21.682C20.6285 22.2355 19.8513 22.5964 18.3838 22.7937C16.8731 22.9968 14.8708 23 12 23C9.12917 23 7.12694 22.9968 5.61624 22.7937C4.14869 22.5964 3.37155 22.2355 2.81802 21.682C2.26449 21.1285 1.9036 20.3513 1.70629 18.8838C1.50319 17.3731 1.5 15.3708 1.5 12.5Z" stroke="#A0E86F" stroke-width="3"/>
</svg>
