<svg width="29" height="28" viewBox="0 0 29 28" fill="none" xmlns="http://www.w3.org/2000/svg">
<path fill-rule="evenodd" clip-rule="evenodd" d="M10.75 14.1408C10.75 13.6576 11.1418 13.2658 11.625 13.2658H25.6728C26.1561 13.2658 26.5478 13.6576 26.5478 14.1408C26.5478 14.6241 26.1561 15.0158 25.6728 15.0158H11.625C11.1418 15.0158 10.75 14.6241 10.75 14.1408Z" fill="#212121"/>
<path fill-rule="evenodd" clip-rule="evenodd" d="M21.6378 10.1213C21.9788 9.77891 22.5328 9.77778 22.8753 10.1188L26.2913 13.5208C26.4561 13.685 26.5488 13.9081 26.5488 14.1408C26.5488 14.3735 26.4561 14.5966 26.2913 14.7608L22.8753 18.1628C22.5328 18.5038 21.9788 18.5026 21.6378 18.1602C21.2968 17.8178 21.298 17.2638 21.6404 16.9228L24.4338 14.1408L21.6404 11.3588C21.298 11.0178 21.2968 10.4637 21.6378 10.1213Z" fill="#212121"/>
<path fill-rule="evenodd" clip-rule="evenodd" d="M16.9191 5.19163C17.8253 5.86311 18.2783 6.96083 18.4646 8.98184C18.5089 9.46305 18.935 9.81719 19.4162 9.77283C19.8974 9.72847 20.2515 9.30242 20.2072 8.82121C20.0085 6.66555 19.4873 4.91661 17.961 3.78558C16.4976 2.70122 14.2929 2.33319 11.1692 2.33319C7.02775 2.33319 4.48145 2.98249 3.1747 5.10979C2.55189 6.12369 2.27666 7.37937 2.14292 8.81682C2.0097 10.2486 2.00971 11.9687 2.00971 13.963V14.0367C2.00971 16.031 2.0097 17.7511 2.14292 19.1829C2.27666 20.6203 2.55189 21.876 3.1747 22.8899C4.48145 25.0172 7.02775 25.6665 11.1692 25.6665C14.2929 25.6665 16.4976 25.2985 17.961 24.2141C19.4873 23.0831 20.0085 21.3342 20.2072 19.1785C20.2515 18.6973 19.8974 18.2712 19.4162 18.2269C18.935 18.1825 18.5089 18.5367 18.4646 19.0179C18.2783 21.0389 17.8253 22.1366 16.9191 22.8081C15.95 23.5262 14.2639 23.9165 11.1692 23.9165C7.02618 23.9165 5.43023 23.2183 4.66585 21.974C4.25309 21.302 4.01054 20.3658 3.8854 19.0208C3.76054 17.6789 3.75971 16.0383 3.75971 13.9999C3.75971 11.9615 3.76054 10.3208 3.8854 8.97894C4.01054 7.63389 4.25309 6.69769 4.66585 6.02576C5.43023 4.78139 7.02618 4.08319 11.1692 4.08319C14.2639 4.08319 15.95 4.47349 16.9191 5.19163Z" fill="#212121"/>
</svg>
